<svg xmlns="http://www.w3.org/2000/svg" viewBox="0 0 324.63 410.8"><defs><style>.cls-1,.cls-2{fill:#7d1ae0;}.cls-2,.cls-3,.cls-4,.cls-5{stroke:#7d1ae0;stroke-miterlimit:10;}.cls-3,.cls-5{fill:none;}.cls-3{stroke-width:0.44px;}.cls-5{stroke-width:0.44px;}</style></defs><g id="Layer_2" data-name="Layer 2"><g id="Layer_5" data-name="Layer 5"><path class="cls-1" d="M234.77,98.31a47.64,47.64,0,0,1,9.33-1.23,46.12,46.12,0,0,1,9.33.42A40.07,40.07,0,0,1,270.59,104a44.34,44.34,0,0,1,12.59,13.45,78,78,0,0,1,7.74,17.11c-.35-1.54-.73-3.08-1.12-4.61s-.94-3-1.45-4.53a62.28,62.28,0,0,0-4-8.67,41.64,41.64,0,0,0-12.77-14.22,38.31,38.31,0,0,0-18-6.42A44.57,44.57,0,0,0,234.77,98.31Z"/><path class="cls-1" d="M250.49,109.48s50.61-8.3,74.14,23.13c0,0-17-23.13-71.37-21,0,0,29.85,6.73,43.89,21.95,0,0-24.32-17.2-43.69-18.59,0,0,55.16,24.72,53.77,41.13,0,0-3.35-14-38.75-23.83,0,0,30.45,13.35,31.24,33.32,0,0-6.72-14.24-20.36-18.39,0,0,18,22.34,21.74,34.8,0,0-9-16-15.1-16.81,0,0,13.92,24.12,13.72,35,0,0-4-13.45-9.49-11.67,0,0,9.89,19.38,6.92,31.83,0,0-1.78-8.75-4.74-8.52,0,0,3,18,1.58,24.54,0,0-.6-9.3-3.36-9.89L289.44,241,286,234s-19.1-116.61-44.8-124.13Z"/><path class="cls-1" d="M194.54,228.33s6.77-10.06,18-12.14,21.5,7,21.5,7,3,5,.74,8.15-16.9,1.93-16.9,1.93-18.51-4.45-23.38-4.37C194.54,228.87,194.11,228.93,194.54,228.33Z"/><path class="cls-1" d="M208.92,225.43A8.79,8.79,0,0,0,217,232.9c3,.31,8.15-2.53,8.15-7.47a8.11,8.11,0,0,0-8.11-8.1C212.55,217.33,208.22,221,208.92,225.43Z"/><path class="cls-1" d="M239.64,233.76s.25-6.82-4-11-10.79-6.05-10.79-6.05a15.72,15.72,0,0,0-4.84-.89l5.47,1.89s8.1,3.22,9.3,6.23,2,5.55,1.17,7.2l1.63-.67A5.13,5.13,0,0,1,239.64,233.76Z"/><path class="cls-1" d="M206.21,217.33a16,16,0,0,1,4.36-2.22,25.09,25.09,0,0,1,4.75-1.14,33.24,33.24,0,0,1,4.89-.38c1.64,0,3.28.06,4.93.18l-2.45-.37c-.83-.05-1.65-.13-2.48-.16a30.39,30.39,0,0,0-5,.29,23.33,23.33,0,0,0-4.81,1.26A13.53,13.53,0,0,0,206.21,217.33Z"/><path class="cls-1" d="M203.69,210a68.68,68.68,0,0,1,10.42-.88,45,45,0,0,1,10.36,1.06,24.23,24.23,0,0,1,9.47,4.13,18.19,18.19,0,0,1,3.61,3.72,19.51,19.51,0,0,1,2.36,4.64,19.7,19.7,0,0,0-2.18-4.76,18,18,0,0,0-3.61-3.83,24.44,24.44,0,0,0-9.55-4.33,45.41,45.41,0,0,0-10.46-.92A52.72,52.72,0,0,0,203.69,210Z"/><path class="cls-1" d="M227.41,208c1.18.38,2.33.84,3.46,1.33a30.77,30.77,0,0,1,3.3,1.65,16.29,16.29,0,0,1,5.48,4.83,11.26,11.26,0,0,0-2.24-3,18.2,18.2,0,0,0-3-2.22A22.82,22.82,0,0,0,227.41,208Z"/><path class="cls-2" d="M162.32,21s2.86-6.53,14.92-10.19c0,0-7.21,3.07-9.59,9.3,0,0,14.93-9.79,28.57-8.31,0,0-6.72,1.88-7.21,3.36a62,62,0,0,1,12.85.75s-11.07,1.13-13.25,3.31c0,0,8-1.19,11.47.29,0,0-7.32.4-11.07,3.46,0,0,12.75-.69,18.18,3.56,0,0-7.9-3.56-14.33-1.18,0,0,6.43.49,9.39,5.63,0,0-8.3-7.51-14.13-4.25a10.13,10.13,0,0,0-4.25,3.46s5.63-2.47,8.4-.59c0,0-4.75.19-6.33,2.22,0,0,4.65.4,5.64,2.52,0,0-7.17-.79-7.91.35,0,0,3.9,1,4.25,4.3,0,0-5-2.44-7.63-1a188.7,188.7,0,0,0-11.46,23.64s2.9.14,2.46,5.09c0,0-2.15,5,1.45,6.92,0,0,10.88-.45,17,3.45,0,0,35,11.28,43.59,20.62a60.79,60.79,0,0,0,6.13,5.73c3.41,2.44,9.38,7.71,15.84,16,8.71,11.25,18.31,28.08,23.7,51.07,0,0,7.51,38.45,7,51.11v21.65L284,234l-.59,21.88-2.77-8.8-1.58,8.8-1.09-3-1.38,10.58s-4.15-8.9-6-9.49,5.63,38.7-4,57.53c0,0-12.46,14.83-18.09,16.61,0,0,13.34-15,14.6-20.09,0,0,4.15-13.64,3.56-22.84,0,0-2.15,12.83-7.49,22.17l-4.82,7.34,5.86-15.49,2.67-12.9s-6.23,17.72-8.45,21.42S257.66,295,259.07,286l2.74-38.63.44-3s5.2-18.78,8.31-20.41c0,0-2.37,15-1.19,16.21s3.61-1.32,3.61-1.32.2-14.79,1.53-18.45.15-13.19-1.18-13.69-14.93-3.85-14.93-3.85-2.27-16.61-4.15-21.46-3.07-7.31-3.07-7.31L255,176.3s-2.18-11.27-4-12.16l3.26,1.09-4.35-17.4A111.57,111.57,0,0,0,244.66,136c-1.63-3-6-9.24-8.5-11.17-9.16-7.13-11.47-7.31-14.43-6.42,0,0,4.94-3,10.28-1.68,0,0-10.78-3-16.81-.3l5.34-5.64s-9.29,2.67-11.66,4.85l6.3-7.89s-7.42,1.26-9.27,4.23l1.7-8.75-6.89,5.27-.24-7.75L195.7,106l1.61-6.4-6.38,6.82,2.23-8.16-6.68,5.64.27-8.32-6.05,10-.15-9.06s-5.92,10.69-9.33,10.92l3.92-9.52L167.33,108l1.13-6.5-4.37,5.79-1.77-4.54V21Z"/><path class="cls-2" d="M163.19,21.19l0,.12s0,0,0,0l.06-.11.13-.22c.08-.15.19-.3.28-.45s.41-.58.64-.86A16.14,16.14,0,0,1,165.77,18a22.25,22.25,0,0,1,3.52-2.71,30,30,0,0,1,4-2.09,41.34,41.34,0,0,1,4.24-1.57L176.9,10a23,23,0,0,0-3.12,1.74A24.54,24.54,0,0,0,171,14a15.91,15.91,0,0,0-4.14,5.86l-1,2.46,2.25-1.43a63.79,63.79,0,0,1,13.46-6.28,35.82,35.82,0,0,1,14.54-1.9L196,11c-1.33.38-2.62.8-3.91,1.31a17.26,17.26,0,0,0-1.93.86,9.19,9.19,0,0,0-1,.58,2.55,2.55,0,0,0-1,1.16l-.49,1.16,1.34-.05a58.89,58.89,0,0,1,12.65.72l.06-1.65c-2.32.25-4.6.59-6.89,1-1.14.24-2.28.5-3.42.84A9,9,0,0,0,188,18.64l-2,1.78,2.74-.38a48.68,48.68,0,0,1,5.65-.44,25.91,25.91,0,0,1,2.8.11,9.3,9.3,0,0,1,2.57.57l.28-1.57a31.36,31.36,0,0,0-5.95,1,15.67,15.67,0,0,0-5.59,2.64l-1.94,1.53,2.5-.1a52.73,52.73,0,0,1,9.23.45,30.15,30.15,0,0,1,4.47,1,12.88,12.88,0,0,1,3.95,1.94l.82-1.36a28,28,0,0,0-7.32-1.92,16.89,16.89,0,0,0-7.61.73l-3.25,1.16,3.46.36a13.9,13.9,0,0,1,5,1.63A10.59,10.59,0,0,1,200,29.34a9.7,9.7,0,0,1,1.62,2l1.2-1A28.62,28.62,0,0,0,199.54,28,22.12,22.12,0,0,0,196,26.13a12.71,12.71,0,0,0-4-1,7.63,7.63,0,0,0-4.19.9l.1-.05a9.63,9.63,0,0,0-1.36.7,11.5,11.5,0,0,0-1.21.86,10.37,10.37,0,0,0-2,2.19l-1.47,2.12,2.41-1a17.37,17.37,0,0,1,4-1.13,5.55,5.55,0,0,1,3.69.47l.4-1.39a16.45,16.45,0,0,0-3.56.59,6.36,6.36,0,0,0-3.33,1.93l-.91,1.06,1.44.15a13.12,13.12,0,0,1,2.92.64,3.63,3.63,0,0,1,2.09,1.45l.77-1.07c-1.37-.14-2.71-.23-4.08-.26-.69,0-1.38,0-2.09,0a8.88,8.88,0,0,0-1.09.15,2.1,2.1,0,0,0-1.36.75l-.68.8,1.12.33a7.63,7.63,0,0,1,1.31.55,6.33,6.33,0,0,1,1.16.81,3.67,3.67,0,0,1,1.23,2.3l1.07-.75A17.13,17.13,0,0,0,184.32,37a6.73,6.73,0,0,0-4.37.33l-.18.08-.11.19c-2.23,3.82-4.22,7.73-6.14,11.69s-3.68,8-5.35,12l-.36.88,1,.11a1.8,1.8,0,0,1,.91.48,2.53,2.53,0,0,1,.63,1,6.93,6.93,0,0,1,.24,2.79l0-.21a10.8,10.8,0,0,0-.57,2,8,8,0,0,0-.08,2.14,4.88,4.88,0,0,0,.73,2.13,4.38,4.38,0,0,0,1.71,1.52l.16.09h.19a46.56,46.56,0,0,1,8.58.61,22.25,22.25,0,0,1,8,2.73l.08,0,.08,0c8.26,2.73,16.46,5.77,24.43,9.25a120.32,120.32,0,0,1,11.65,5.8,44.47,44.47,0,0,1,5.34,3.59,21.64,21.64,0,0,1,2.31,2.19c.77.81,1.55,1.58,2.35,2.34,14.06,10.51,24.75,24.64,32.37,40.27a139.27,139.27,0,0,1,9.13,24.39c.55,2.1,1.14,4.2,1.54,6.32l1.2,6.43q1.17,6.43,2.23,12.89c1.37,8.61,2.73,17.26,3.28,25.92.19,8.65.07,17.45.12,26.17l1.11-.12-2-9.33-1-4.54-.12,4.64-.58,21.88,1.05-.14-2.77-8.8-.65-2.06-.38,2.13-1.58,8.8,1-.09-1.09-3-.74-2-.28,2.12-1.37,10.57,1-.15a59.13,59.13,0,0,0-4.26-7.7,8,8,0,0,0-1.53-1.75l-.3-.2-.19-.08s0,0-.15,0a.72.72,0,0,0-.36,0,.8.8,0,0,0-.42.55,3,3,0,0,0-.07.34,9.4,9.4,0,0,0,0,1.16c0,1.49.15,2.93.25,4.39.45,5.79.9,11.58,1,17.38a127,127,0,0,1-.56,17.34c-.64,5.72-1.77,11.49-4.33,16.62l.05-.09c-2.66,3.12-5.43,6.17-8.33,9.07-1.46,1.44-3,2.85-4.51,4.17a18.79,18.79,0,0,1-5,3.24l.48.73c2.66-3,5.24-6.1,7.72-9.27,1.24-1.58,2.45-3.19,3.6-4.85A30.33,30.33,0,0,0,263.2,309a95.74,95.74,0,0,0,2.86-11.78,53.55,53.55,0,0,0,1-12.07l-.18-3.58-.66,3.53a85.32,85.32,0,0,1-4.33,15.44,44.87,44.87,0,0,1-3.48,7.18L254,314.5l.71.36,5.85-15.5v-.05l2.66-12.91-.73-.2q-2,5.51-4,11a88.14,88.14,0,0,1-4.56,10.65c0,.07-.2.2,0,.12,0,0,.15,0,.21,0a.36.36,0,0,1,.14.13s0,.06,0,0V308a4.3,4.3,0,0,1,.1-.68c.08-.46.19-.94.3-1.41l.72-2.82,1.49-5.65c1-3.77,1.94-7.56,2.57-11.43h0v0l2.72-38.63v0l.44-3v0c1-3.55,2.1-7.09,3.33-10.58.61-1.74,1.27-3.47,2-5.15.37-.84.77-1.67,1.21-2.47a5.84,5.84,0,0,1,1.6-2l-.45-.33c-.51,3.4-1,6.8-1.29,10.22a31,31,0,0,0-.16,5.2,3.18,3.18,0,0,0,.15.69,1.18,1.18,0,0,0,.24.39,1.5,1.5,0,0,0,.33.23,1.79,1.79,0,0,0,1.49,0,7,7,0,0,0,2.18-1.56l.09-.08v-.12c.07-4,.21-8,.53-12a36.68,36.68,0,0,1,.83-5.88,16.8,16.8,0,0,0,.73-6,31.32,31.32,0,0,0-.72-6,9.93,9.93,0,0,0-.45-1.47,2.73,2.73,0,0,0-.39-.73,1.13,1.13,0,0,0-.41-.32l-.38-.12-2.9-.78-11.66-2.94.2.22c-.7-4.92-1.47-9.83-2.44-14.72a45.57,45.57,0,0,0-1.91-7.23c-.91-2.32-1.85-4.62-2.9-6.89l-.35.32,3.86,2.27.46.28-.1-.53c-.43-2.13-.91-4.24-1.49-6.33-.29-1.05-.6-2.09-1-3.11a15.42,15.42,0,0,0-.65-1.52,3.17,3.17,0,0,0-1.08-1.37l-.18.44,3.26,1.08.41.13-.11-.4-4.36-17.4h0c-1.29-3.4-2.69-6.75-4.29-10a52.79,52.79,0,0,0-5.9-9.16,24.32,24.32,0,0,0-3.72-4c-1.44-1.11-2.89-2.2-4.38-3.24a29.58,29.58,0,0,0-4.72-2.76,8.4,8.4,0,0,0-2.67-.73,7.26,7.26,0,0,0-2.75.35l.15.35a16.54,16.54,0,0,1,4.94-1.75,13.4,13.4,0,0,1,2.61-.22,11.9,11.9,0,0,1,2.59.3l.1-.35a45.74,45.74,0,0,0-8.46-1.35,19.4,19.4,0,0,0-8.47,1.07l.2.28,5.33-5.64.44-.46-.61.18q-3,.9-6,2c-1,.38-2,.78-2.94,1.22a12.2,12.2,0,0,0-2.76,1.66l.24.22,6.3-7.89.27-.33-.42.08a29.4,29.4,0,0,0-5,1.39,15.57,15.57,0,0,0-2.37,1.13,6,6,0,0,0-2,1.78l.28.11,1.7-8.75.08-.39-.32.24-6.89,5.27.23.11-.24-7.75,0-.34-.23.25-4.77,5.26.23.12,1.61-6.4.13-.5-.36.38-6.37,6.82.22.12,2.22-8.15.1-.39-.3.26-6.67,5.64.19.09.26-8.31v-.43l-.22.36-6,10,.2,0-.16-9.07v-.36l-.18.32a65.06,65.06,0,0,1-3.95,6.16,26,26,0,0,1-2.33,2.8,5.76,5.76,0,0,1-3,1.92l.08.12,3.91-9.52.22-.53-.35.46L167.28,108l.12,0,1.12-6.5,0-.25-.15.21-4.36,5.79h.1l-1.79-4.54v0L162.32,21Zm-.87-1.88V21l-.06,81.75h0l1.77,4.54,0,.1.06-.08,4.37-5.79-.11,0-1.13,6.5-.05.27.17-.22,7.81-10.14-.13-.08-3.93,9.51-.06.14.15,0a5.85,5.85,0,0,0,3.09-2,27.44,27.44,0,0,0,2.35-2.82,63.6,63.6,0,0,0,4-6.18l-.19,0,.15,9.07v.36l.19-.31,6.05-10-.21-.06-.26,8.32v.26l.2-.17,6.68-5.63-.2-.13-2.23,8.16-.14.5.36-.38,6.38-6.82-.23-.12-1.61,6.4-.13.52.36-.4,4.78-5.25-.24-.09.24,7.75v.28l.23-.17,6.9-5.26-.24-.15-1.71,8.75-.16.8L206,112a5.64,5.64,0,0,1,1.86-1.67,15.43,15.43,0,0,1,2.32-1.11,29.62,29.62,0,0,1,5-1.37l-.15-.25-6.3,7.87.24.23a11.5,11.5,0,0,1,2.67-1.59c1-.44,1.93-.84,2.92-1.22,2-.73,4-1.4,6-2l-.17-.28-5.35,5.63-.56.59.76-.31a19,19,0,0,1,8.31-1,45.59,45.59,0,0,1,8.38,1.34l.09-.35a12.12,12.12,0,0,0-2.68-.32,14.12,14.12,0,0,0-2.68.22,16.88,16.88,0,0,0-5.06,1.79l-1.57.87,1.72-.52a6.86,6.86,0,0,1,2.61-.34,7.9,7.9,0,0,1,2.54.71,28.3,28.3,0,0,1,4.65,2.73c1.49,1,2.93,2.12,4.36,3.23a24.87,24.87,0,0,1,3.65,3.94,53.13,53.13,0,0,1,5.84,9.1c1.59,3.25,3,6.6,4.26,10v0l4.33,17.4.3-.28-3.26-1.09-1.45-.48,1.28.92a6.07,6.07,0,0,1,1.48,2.62c.37,1,.68,2,1,3.08.57,2.07,1,4.18,1.47,6.29l.36-.26-3.85-2.27-.68-.4.33.72c1,2.24,2,4.54,2.88,6.85a45.27,45.27,0,0,1,1.88,7.15c1,4.87,1.72,9.78,2.42,14.69l0,.18.18,0L270,206l2.89.79.34.11a.5.5,0,0,1,.17.14,3,3,0,0,1,.31.59,9.43,9.43,0,0,1,.42,1.4,30.68,30.68,0,0,1,.7,5.9,16.18,16.18,0,0,1-.72,5.84,37.27,37.27,0,0,0-.86,6c-.32,4-.47,8-.55,12l.09-.2a6.42,6.42,0,0,1-2,1.41,1.22,1.22,0,0,1-1,.06.62.62,0,0,1-.19-.14.34.34,0,0,1-.09-.16,2.78,2.78,0,0,1-.11-.56,30.75,30.75,0,0,1,.16-5.06c.32-3.4.79-6.8,1.31-10.18l.1-.68-.56.36a6.09,6.09,0,0,0-1.85,2.26c-.46.82-.86,1.66-1.24,2.52-.75,1.7-1.41,3.44-2,5.19-1.24,3.51-2.34,7.05-3.36,10.62v0l-.44,3h0v0l-2.76,38.62v0c-.62,3.82-1.59,7.59-2.57,11.36l-1.49,5.65-.73,2.83c-.11.48-.22,1-.31,1.45a5.94,5.94,0,0,0-.11.77,2.06,2.06,0,0,0,0,.25s0,.12.06.21a.53.53,0,0,0,.2.19.4.4,0,0,0,.3,0c.39-.19.33-.28.46-.4a41.07,41.07,0,0,0,2.51-5.35q1.11-2.72,2.14-5.45,2.08-5.46,4-11l-.74-.2-2.67,12.9v-.06L254,314.58l-1.3,3.42,2-3.06,4.44-6.75a45.65,45.65,0,0,0,3.55-7.31,86.93,86.93,0,0,0,4.4-15.6l-.84,0a52.81,52.81,0,0,1-1,11.87,95.28,95.28,0,0,1-2.83,11.6c-1.59,3.55-4.15,6.75-6.56,9.91s-5,6.22-7.69,9.22l-1.19,1.34,1.66-.61a19,19,0,0,0,5.34-3.4c1.59-1.34,3.1-2.76,4.57-4.21,2.93-2.93,5.72-6,8.41-9.12l0,0,0-.05c2.66-5.3,3.79-11.16,4.46-16.94a130.88,130.88,0,0,0,.58-17.48c-.15-5.83-.59-11.64-1-17.43-.1-1.44-.21-2.9-.24-4.32a8.12,8.12,0,0,1,0-1,.69.69,0,0,1,0-.19c0-.06.09,0-.15.09-.45.06-.17,0-.19.06l.16.1a7.4,7.4,0,0,1,1.31,1.53,58.72,58.72,0,0,1,4.16,7.55l.76,1.57.22-1.72L278.49,253l-1,.11,1.09,3,.66,1.83.35-1.92,1.59-8.79-1,.06,2.77,8.8,1,3.07.09-3.22.61-21.88-1.1.1,2,9.33,1.14,5.33,0-5.45c0-8.74.1-17.41-.09-26.22-.55-8.77-1.9-17.41-3.26-26q-1.05-6.47-2.21-12.92l-1.2-6.44c-.4-2.17-1-4.29-1.55-6.41a140.46,140.46,0,0,0-9.18-24.62,123.06,123.06,0,0,0-13.89-22.31,98.45,98.45,0,0,0-8.79-9.82c-1.58-1.53-3.21-3-4.94-4.38-.87-.71-1.79-1.31-2.57-2s-1.61-1.44-2.4-2.18-1.55-1.51-2.29-2.29a23.31,23.31,0,0,0-2.44-2.31,44.61,44.61,0,0,0-5.5-3.72,121,121,0,0,0-11.79-5.88c-8-3.52-16.22-6.58-24.54-9.34l.16.08a23.64,23.64,0,0,0-8.48-3,47.84,47.84,0,0,0-8.87-.63l.35.08a3.11,3.11,0,0,1-1.68-2.56,7.76,7.76,0,0,1,.55-3.45l.05-.13v-.09a8.26,8.26,0,0,0-.31-3.39,3.84,3.84,0,0,0-1-1.6,3.08,3.08,0,0,0-1.84-.88l.63,1q2.49-6.06,5.33-12c1.9-3.92,3.9-7.83,6.09-11.56l-.28.27a5.42,5.42,0,0,1,3.39-.18,16.56,16.56,0,0,1,3.56,1.19l1.2.56-.13-1.3A5.21,5.21,0,0,0,187,35.68a7.92,7.92,0,0,0-1.45-1,8.56,8.56,0,0,0-1.64-.68l.43,1.13c-.13.12.17-.09.42-.11a6.31,6.31,0,0,1,.9-.12c.63-.05,1.28-.05,1.94,0,1.31,0,2.64.12,3.94.26l1.35.14L192.26,34a3.76,3.76,0,0,0-1.35-1.46,7.33,7.33,0,0,0-1.6-.77,14.42,14.42,0,0,0-3.3-.72l.53,1.22a5.16,5.16,0,0,1,2.56-1.41,15.05,15.05,0,0,1,3.2-.52l2.38-.15-2-1.24a6.91,6.91,0,0,0-4.75-.72,18.09,18.09,0,0,0-4.38,1.24l.94,1.13a9,9,0,0,1,1.73-1.86,11.16,11.16,0,0,1,1.06-.74,7.71,7.71,0,0,1,1.1-.57l.06,0,0,0a6.1,6.1,0,0,1,3.35-.7,11.25,11.25,0,0,1,3.54.86,24,24,0,0,1,6.35,4l4,3.39-2.75-4.36A11.25,11.25,0,0,0,201,28.21a11.77,11.77,0,0,0-2.43-1.8,15.18,15.18,0,0,0-2.74-1.2,14.72,14.72,0,0,0-3-.64l.21,1.52a15.5,15.5,0,0,1,6.89-.62,25.93,25.93,0,0,1,6.85,1.8l5.7,2.39-4.88-3.75a14.56,14.56,0,0,0-4.45-2.2,30.28,30.28,0,0,0-4.72-1.06,53.57,53.57,0,0,0-9.56-.48l.56,1.44a14.3,14.3,0,0,1,5-2.32,30.74,30.74,0,0,1,5.61-.95l3.44-.25-3.16-1.32a10.72,10.72,0,0,0-3.05-.69,27.29,27.29,0,0,0-3-.12,50.26,50.26,0,0,0-5.88.45l.7,1.4a8.08,8.08,0,0,1,2.75-1.26c1.06-.31,2.16-.57,3.27-.79,2.22-.44,4.48-.77,6.73-1l5.83-.65-5.77-1a53,53,0,0,0-6.5-.72,65,65,0,0,0-6.55,0l.86,1.11a1.89,1.89,0,0,1,.36-.32,6.1,6.1,0,0,1,.76-.45,19,19,0,0,1,1.77-.79c1.22-.47,2.49-.89,3.75-1.25l4.19-1.2L196.31,11a37.41,37.41,0,0,0-15.24,2,60,60,0,0,0-7.13,2.81,61.35,61.35,0,0,0-6.76,3.65l1.29,1a14.09,14.09,0,0,1,3.69-5.2,22.11,22.11,0,0,1,2.59-2,20.47,20.47,0,0,1,2.84-1.59L177,10a47.21,47.21,0,0,0-4.44,1.63,31.78,31.78,0,0,0-4.2,2.22,23.78,23.78,0,0,0-3.8,2.91,18.61,18.61,0,0,0-1.65,1.79A7.51,7.51,0,0,0,162.32,19.31Z"/><path class="cls-3" d="M162.32,410.58a134.81,134.81,0,0,0,15.54-3.39,34.4,34.4,0,0,0,9.79-4.55c8.46-5.71,20.54-14.79,29.84-22.51a79.7,79.7,0,0,0,23.64-32.93c6.77-17.79,12.77-38.95,12.77-38.95"/><path class="cls-1" d="M176.55,71.62c2-2.19,3.94-4.38,6-6.51s4-4.31,6-6.41c4.09-4.21,8.23-8.36,12.56-12.31a147,147,0,0,1,13.46-11.24,42,42,0,0,1,3.59-2.51c1.24-.76,2.42-1.65,3.73-2.31s2.54-1.44,3.86-2.09,2.7-1.11,4.06-1.7c-5.79,1.3-11.07,4.26-16,7.49-2.53,1.56-4.82,3.45-7.19,5.23s-4.54,3.79-6.7,5.82a164.45,164.45,0,0,0-12.35,12.7A161.09,161.09,0,0,0,176.55,71.62Z"/><path class="cls-1" d="M180.18,73.25c1.26-1.54,2.5-3.08,3.82-4.57s2.56-3,3.9-4.45c2.67-2.9,5.38-5.75,8.31-8.36a64.6,64.6,0,0,1,9.23-7.19A22.81,22.81,0,0,1,208,47.21,17.26,17.26,0,0,1,210.61,46a26.8,26.8,0,0,1,2.74-1.07c1-.23,1.9-.49,2.86-.77-1,.09-2,.19-3,.31a26.6,26.6,0,0,0-2.93.71,17.89,17.89,0,0,0-2.83,1.07,21.19,21.19,0,0,0-2.72,1.3A47.46,47.46,0,0,0,195,54.56a70.57,70.57,0,0,0-8.15,8.79A72.46,72.46,0,0,0,180.18,73.25Z"/><path class="cls-1" d="M198.79,79.77c.55-2.71,1.19-5.4,2-8a81.33,81.33,0,0,1,2.62-7.81A71.6,71.6,0,0,1,211,49.41,43.87,43.87,0,0,1,222.33,37.9a39.42,39.42,0,0,1,15.16-6,35.58,35.58,0,0,0-8.22,1.42,34.78,34.78,0,0,0-7.68,3.44,40.26,40.26,0,0,0-12.1,11.65,60.35,60.35,0,0,0-7.36,15.07A66.71,66.71,0,0,0,198.79,79.77Z"/><path class="cls-1" d="M203.19,81.11c3.39,0,6.77-.06,10.12.22a41.38,41.38,0,0,1,9.82,1.77,16.4,16.4,0,0,1,8,5.11,10.84,10.84,0,0,1,2,8.83l-.54,2.52,1.94-1.63c2.45-2.07,5-4.07,7.65-5.94a74.81,74.81,0,0,1,8.19-5.13c2.82-1.42,5.9-2.79,9-2.54A4.45,4.45,0,0,1,263,86.81,11.57,11.57,0,0,1,264,91.49a11,11,0,0,0-.68-4.86,5.31,5.31,0,0,0-1.52-2,5.49,5.49,0,0,0-2.37-1,11.47,11.47,0,0,0-5,.43,30.3,30.3,0,0,0-4.65,1.77,62.3,62.3,0,0,0-8.54,4.93,98.19,98.19,0,0,0-7.88,5.92l1.4.89a12.13,12.13,0,0,0-2.27-10.35c-2.27-2.91-5.64-4.49-8.94-5.48a42.18,42.18,0,0,0-10.2-1.29A70.38,70.38,0,0,0,203.19,81.11Z"/><path class="cls-1" d="M225.88,92.22a150.22,150.22,0,0,1,13.17-16.69A129.79,129.79,0,0,1,254.55,61c2.78-2.2,5.65-4.27,8.63-6.18a89.53,89.53,0,0,1,9.32-5.1,72.91,72.91,0,0,1,10-3.68,62.55,62.55,0,0,1,10.44-1.94,62.17,62.17,0,0,0-10.5,1.73,72.71,72.71,0,0,0-10,3.62A88.26,88.26,0,0,0,263,54.52a106,106,0,0,0-8.72,6.14,136.42,136.42,0,0,0-28.39,31.56Z"/><path class="cls-1" d="M229,94.16a61,61,0,0,1,8.67-7,54.52,54.52,0,0,1,9.77-5.35c6.81-2.87,14.61-3.94,21.71-1.66a31.28,31.28,0,0,1,9.78,5.13,47.91,47.91,0,0,1,7.77,8c1.14,1.47,2.16,3,3.22,4.56s1.93,3.18,2.82,4.82,1.75,3.29,2.55,5l2.29,5.1A82,82,0,0,0,286.9,93,47.42,47.42,0,0,0,279.13,85a31.61,31.61,0,0,0-9.88-5.27c-7.24-2.27-15.12-1.11-21.95,1.82A58,58,0,0,0,229,94.16Z"/><path class="cls-1" d="M171.5,72.61c1.9-3.25,3.9-6.44,5.95-9.6s4.24-6.23,6.55-9.2a76.81,76.81,0,0,1,7.38-8.52,36.37,36.37,0,0,1,4.3-3.63,16.4,16.4,0,0,1,5-2.56c-3.69.95-6.77,3.41-9.49,6a75.49,75.49,0,0,0-7.53,8.46c-2.28,3-4.41,6.13-6.44,9.31S173.25,69.27,171.5,72.61Z"/><path class="cls-1" d="M242.71,106.05a74.26,74.26,0,0,0-6.85-14.85,88.06,88.06,0,0,0-9.54-13.32L225,76.32l-1.43-1.47c-1-1-1.89-2-2.89-2.91-2-1.82-4-3.72-6.22-5.34-1.09-.82-2.12-1.74-3.26-2.48l-3.41-2.28a36.69,36.69,0,0,0-3.53-2.08l-3.58-2a96.2,96.2,0,0,1,13.6,9c2.18,1.63,4.13,3.54,6.14,5.37,1,.94,1.9,2,2.85,2.93l1.41,1.48L226,78.17a88,88,0,0,1,9.61,13.18A85.48,85.48,0,0,1,242.71,106.05Z"/><path class="cls-1" d="M236.36,100.78a47.11,47.11,0,0,1,11.81-11.67A61.58,61.58,0,0,1,263,81.54a71.92,71.92,0,0,1,8-2.26,68.75,68.75,0,0,1,8.22-1.37,36.24,36.24,0,0,1,4.16-.33l4.18-.2c2.78,0,5.57.12,8.35.17-2.78-.13-5.57-.32-8.36-.39l-4.18.16a34.27,34.27,0,0,0-4.18.3,67.74,67.74,0,0,0-8.27,1.3,71.27,71.27,0,0,0-8.1,2.2A62.31,62.31,0,0,0,248,88.87,43.83,43.83,0,0,0,236.36,100.78Z"/><path class="cls-1" d="M195.83,79.77a154.11,154.11,0,0,0,11.08-18.26,143.75,143.75,0,0,0,8.53-19.6A86.8,86.8,0,0,0,220,21a46.31,46.31,0,0,0-2.78-21,48.22,48.22,0,0,1,2.48,21A86.65,86.65,0,0,1,215,41.77a143.38,143.38,0,0,1-8.37,19.61A183.33,183.33,0,0,1,195.83,79.77Z"/><path class="cls-2" d="M184.83,267.05S201.39,293,188.93,300a19.19,19.19,0,0,0,3.31-12.75C191.77,280.75,187.1,271.55,184.83,267.05Z"/><path class="cls-2" d="M270.56,254s7.71,4.75,3.26,22.54c0,0,1.29,31-24.56,49C249.26,325.58,268.63,259.34,270.56,254Z"/><path class="cls-1" d="M271.5,258.1s2.32,3,2.67,5.44C274.17,263.54,271.79,259,271.5,258.1Z"/><path class="cls-1" d="M271.5,260.57s.49,3.61,1.88,4.21c0,0-1,1.13-.55,2.07,0,0-.34-1.09-.84-.89l-.49-1.09S270.9,260.62,271.5,260.57Z"/><path class="cls-1" d="M277.68,259.44c.64.15,1.25.47,1.9.66a14.67,14.67,0,0,0,2,.43,17.23,17.23,0,0,0,4.06.06,21.59,21.59,0,0,0,4-.89c.64-.2,1.26-.47,1.89-.71l1.81-.89a30.74,30.74,0,0,1-7.71,2,18.17,18.17,0,0,1-4,0A29.59,29.59,0,0,1,277.68,259.44Z"/><path class="cls-1" d="M277.28,262.8c1.12,1.13,2.35,2.13,3.57,3.14a45.84,45.84,0,0,0,3.84,2.79c-1.12-1.13-2.34-2.13-3.56-3.14S278.63,263.64,277.28,262.8Z"/><path class="cls-2" d="M275.7,266.85c.82,1,1.62,2.09,2.42,3.15s1.57,2.11,2.3,3.21a35.2,35.2,0,0,1,2.08,3.35,14.86,14.86,0,0,1,1.5,3.64,11.5,11.5,0,0,0-1.2-3.79,28.21,28.21,0,0,0-2-3.45A42.53,42.53,0,0,0,275.7,266.85Z"/><path class="cls-2" d="M275.2,269.22a24.24,24.24,0,0,1,1.28,6.22,28.61,28.61,0,0,1-.15,6.34,29.87,29.87,0,0,1-1.47,6.16,40.7,40.7,0,0,1-2.55,5.83c.52-.92,1.1-1.82,1.59-2.77a31.86,31.86,0,0,0,1.28-2.94,28.36,28.36,0,0,0,1.59-6.23,27,27,0,0,0,.05-6.42A20.65,20.65,0,0,0,275.2,269.22Z"/><path class="cls-4" d="M274.68,275.5a50.13,50.13,0,0,0,.95,8.37,21.26,21.26,0,0,0,2.94,7.87,18.29,18.29,0,0,1-1.53-3.89c-.39-1.34-.72-2.7-1-4.07s-.52-2.74-.75-4.12S274.87,276.89,274.68,275.5Z"/><path class="cls-4" d="M275.2,272.31a23,23,0,0,0,4.35,4.35,10.36,10.36,0,0,0,5.61,2.4,9.75,9.75,0,0,1-2.82-1.08,19,19,0,0,1-2.52-1.68c-.82-.59-1.59-1.25-2.36-1.92S275.94,273,275.2,272.31Z"/><path class="cls-2" d="M275.7,270.24a44.55,44.55,0,0,0,4.75,4c.85.6,1.71,1.19,2.61,1.71a5,5,0,0,0,2.94.93,2.43,2.43,0,0,1-1.44-.43,15,15,0,0,1-1.32-.8c-.86-.56-1.71-1.15-2.53-1.77C279,272.71,277.4,271.43,275.7,270.24Z"/><path class="cls-4" d="M276.8,274.69a38.11,38.11,0,0,0,1.72,7.2c.42,1.16.88,2.32,1.4,3.44a26.18,26.18,0,0,0,1.83,3.22A75.5,75.5,0,0,1,276.8,274.69Z"/><path class="cls-2" d="M279.85,258.1a62,62,0,0,0,7.44,8.74,36.1,36.1,0,0,0,4.43,3.67,12.52,12.52,0,0,0,5.23,2.32,13.86,13.86,0,0,1-5-2.59,42.37,42.37,0,0,1-4.32-3.72c-1.38-1.31-2.69-2.7-4-4.1S281.08,259.57,279.85,258.1Z"/><path class="cls-1" d="M279.27,258.45c2.42,1.22,4.88,2.28,7.35,3.36s5,2.06,7.52,2.94c-2.4-1.22-4.88-2.28-7.35-3.35S281.82,259.33,279.27,258.45Z"/><path class="cls-4" d="M262.23,318.08a13.18,13.18,0,0,1-1.88,3.63,18.15,18.15,0,0,1-2.74,3,22.83,22.83,0,0,1-3.32,2.38,38.18,38.18,0,0,1-3.67,1.85l1.95-.67c.63-.3,1.28-.55,1.89-.88a20.06,20.06,0,0,0,3.44-2.34A13.17,13.17,0,0,0,262.23,318.08Z"/><path class="cls-4" d="M264.7,318.36a19.12,19.12,0,0,1-1.67,6.13,14.76,14.76,0,0,1-3.74,5,15,15,0,0,1-5.46,3.09,21.37,21.37,0,0,1-3.08.78c-1.05.17-2.11.25-3.17.38,1.06-.06,2.14-.06,3.2-.16a22.8,22.8,0,0,0,3.16-.68,14.94,14.94,0,0,0,5.65-3.08A15.84,15.84,0,0,0,264.7,318.36Z"/><path class="cls-4" d="M251.51,328.14a36.1,36.1,0,0,0,.14,6.49,21.89,21.89,0,0,0,.61,3.21,4.61,4.61,0,0,0,1.64,2.76,5.15,5.15,0,0,1-1.31-2.85,27.87,27.87,0,0,1-.49-3.17C251.82,332.45,251.71,330.3,251.51,328.14Z"/><path class="cls-4" d="M248.91,329.46c0,3.15.08,6.29.13,9.44l.09,4.71c0,.79,0,1.57,0,2.36a9.67,9.67,0,0,1-.22,2.34,18.08,18.08,0,0,0,.56-4.69c.05-1.58,0-3.16,0-4.73C249.39,335.74,249.25,332.59,248.91,329.46Z"/><path class="cls-4" d="M244.61,340.13c.09,2.33.26,4.64.31,7,.06,1.16.05,2.32,0,3.47a18.28,18.28,0,0,1-.34,3.46,19.61,19.61,0,0,0,.75-6.94A45,45,0,0,0,244.61,340.13Z"/><path class="cls-4" d="M260.55,305.75a6.37,6.37,0,0,1-.27,4.65,8.05,8.05,0,0,1-1.31,2,17.57,17.57,0,0,1-1.76,1.68l1.06-.64c.31-.27.65-.51,1-.8a7.76,7.76,0,0,0,1.47-2,6,6,0,0,0,.5-2.46A4.9,4.9,0,0,0,260.55,305.75Z"/><path class="cls-4" d="M259.12,308.86a20.24,20.24,0,0,1-.41,2.35,15.65,15.65,0,0,1-.68,2.24,10.72,10.72,0,0,1-1.06,2.08,9.3,9.3,0,0,1-1.54,1.79,6.58,6.58,0,0,0,1.82-1.59,8.67,8.67,0,0,0,1.19-2.12A10.88,10.88,0,0,0,259.12,308.86Z"/><path class="cls-4" d="M264.38,295.87a12.71,12.71,0,0,0,0,4.71,11.09,11.09,0,0,0,.22-2.36A11.69,11.69,0,0,0,264.38,295.87Z"/><path class="cls-1" d="M195.86,226.63c1,.84,2.13,1.42,2.68,2.62a1.8,1.8,0,0,0-.22-1,3.6,3.6,0,0,0-.66-.79A3.74,3.74,0,0,0,195.86,226.63Z"/><path class="cls-2" d="M182.87,292.85c-4.17-3.51-9,.33-10.79,2.11a6.13,6.13,0,0,0-1.59.91,6.36,6.36,0,0,0-1.48,1.62,24.8,24.8,0,0,0,2.35-1.76c6.21-4.07,12.69,1.86,13,0S182.87,292.85,182.87,292.85Z"/><path class="cls-1" d="M74.14,109.48S23.53,101.18,0,132.61c0,0,17-23.13,71.37-21,0,0-29.85,6.73-43.89,21.95,0,0,24.32-17.2,43.69-18.59,0,0-55.16,24.72-53.77,41.13,0,0,3.35-14,38.75-23.83,0,0-30.45,13.35-31.24,33.32,0,0,6.72-14.24,20.36-18.39,0,0-18,22.34-21.74,34.8,0,0,9-16,15.1-16.81,0,0-13.92,24.12-13.72,35,0,0,3.95-13.45,9.49-11.67,0,0-9.88,19.38-6.92,31.83,0,0,1.78-8.75,4.75-8.52,0,0-3,18-1.59,24.54,0,0,.6-9.3,3.37-9.89L35.19,241,38.63,234s19.1-116.61,44.8-124.13Z"/><path class="cls-1" d="M130.09,228.33s-6.77-10.06-18-12.14-21.5,7-21.5,7-3,5-.74,8.15,16.9,1.93,16.9,1.93,18.51-4.45,23.38-4.37C130.09,228.87,130.52,228.93,130.09,228.33Z"/><path class="cls-1" d="M115.71,225.43a8.79,8.79,0,0,1-8.07,7.47c-3,.31-8.15-2.53-8.15-7.47a8.11,8.11,0,0,1,8.11-8.1C112.08,217.33,116.41,221,115.71,225.43Z"/><path class="cls-1" d="M85,233.76s-.25-6.82,4-11,10.79-6.05,10.79-6.05a15.72,15.72,0,0,1,4.84-.89l-5.46,1.89s-8.11,3.22-9.31,6.23-2,5.55-1.17,7.2L87,230.42A5.13,5.13,0,0,0,85,233.76Z"/><path class="cls-1" d="M118.43,217.33a16.23,16.23,0,0,0-4.37-2.22,25.09,25.09,0,0,0-4.75-1.14,33.24,33.24,0,0,0-4.89-.38c-1.64,0-3.28.06-4.93.18l2.45-.37c.83-.05,1.65-.13,2.48-.16a30.39,30.39,0,0,1,5,.29,23.33,23.33,0,0,1,4.81,1.26A13.69,13.69,0,0,1,118.43,217.33Z"/><path class="cls-1" d="M121,210a68.81,68.81,0,0,0-10.43-.88,45,45,0,0,0-10.36,1.06,24.3,24.3,0,0,0-9.47,4.13,18.19,18.19,0,0,0-3.61,3.72,19.51,19.51,0,0,0-2.36,4.64A19.7,19.7,0,0,1,86.9,218a18,18,0,0,1,3.61-3.83,24.44,24.44,0,0,1,9.55-4.33,45.41,45.41,0,0,1,10.46-.92A52.91,52.91,0,0,1,121,210Z"/><path class="cls-1" d="M97.22,208c-1.18.38-2.33.84-3.46,1.33a30.77,30.77,0,0,0-3.3,1.65A16.16,16.16,0,0,0,85,215.77a11,11,0,0,1,2.23-3,18.2,18.2,0,0,1,3-2.22A22.82,22.82,0,0,1,97.22,208Z"/><path class="cls-5" d="M162.37,330.14l5.53.69s2.08-3.71,5.34-3.36c0,0,22.14,5.6,25.26,10.79l.37,3s.1.35-4.36,4.21c-3,2.6-3.86,4.15-7.59,6.23a27.79,27.79,0,0,1-11.12,3.71c-6.55.54-12.53.89-12.53.89h0s-6.11-.35-12.67-.89a27.79,27.79,0,0,1-11.12-3.71c-3.73-2.08-4.58-3.63-7.58-6.23-4.46-3.86-6.13-4.21-6.13-4.21l.38-3c3.11-5.19,25.35-10.79,25.35-10.79,3.27-.35,5.34,3.36,5.34,3.36l5.49-.69Z"/><path class="cls-2" d="M142.53,213.83c-2.81-1.84-14.67-8.58-37.47-8.07-26.39.59-36,7.37-36,7.37a20.25,20.25,0,0,0-4.73,9.51c-.08.35-.15.7-.21,1.07a26.79,26.79,0,0,0,.42,10.6c3.16,13.59,4.4,15.27,8.94,20.7s20,6.18,20,6.18,17.79,1.87,33.07-1.43S144,243.25,144,243.25s2.94-10.3,2.57-19c-.17-4.12-1.09-7.87-3.41-10C143.19,214.29,143,214.12,142.53,213.83Z"/><path class="cls-2" d="M260.4,222.49a20.14,20.14,0,0,0-4.69-9.36s-9.64-6.78-36-7.37c-22.67-.51-34.52,6.15-37.42,8-.48.31-.71.49-.71.49-2.33,2.11-3.24,5.87-3.41,10-.36,8.67,2.57,19,2.57,19s2.22,13.21,17.49,16.51,33.07,1.43,33.07,1.43,15.47-.74,20-6.18,5.78-7.11,8.94-20.7a26.79,26.79,0,0,0,.42-10.6C260.58,223.29,260.5,222.89,260.4,222.49Z"/><path class="cls-2" d="M272.54,206.73c-16.9-6.68-71.62-5.49-82.44-.75-10.21,4.48-25.82,5.5-27.57,5.6h-.16s-16.9-.86-27.73-5.61-65.54-5.93-82.44.75c0,0-2.69-.51-2.12,11.71,0,.52.05,1.06.09,1.63,0,0,0,0,0,0,.06.3.49,2.38.89,5.28v0a62.53,62.53,0,0,1,.63,12.89h0a.32.32,0,0,0,0,.19c0,.14.19.33.6.54a5.24,5.24,0,0,0,1,.39h0c.41.11.91.22,1.55.33l.41.06s0-.31,0-.85h0c0-1.13-.1-3.22-.2-5.51-.08-1.73-.17-3.57-.29-5.18a37.22,37.22,0,0,0-.43-4.09,1.65,1.65,0,0,0-.12-.43h0c0,.08.15.19.26.33a25.83,25.83,0,0,1,2.75,4.58l.18.41c.27.59.53,1.23.77,1.91a1.52,1.52,0,0,0,.09.25,25.71,25.71,0,0,1,1,3.64l.06.34.74,2.09L62.42,244h0l0,0,.56,1.57,1.69,4.78a19.89,19.89,0,0,0,14.1,11.79,109.76,109.76,0,0,0,34.15,2.27c19.58-1.63,23-3.95,23-3.95s6.32-.59,10.57-13,5.34-21.77,9.69-22.65a27.33,27.33,0,0,1,3.28-.49l2.8,0h0l.09,0,3.11,0a28.46,28.46,0,0,1,3.07.47c4.35.88,5.44,10.25,9.69,22.65s10.57,13,10.57,13,3.41,2.32,23,3.95A109.76,109.76,0,0,0,246,262.18a19.89,19.89,0,0,0,14.1-11.79l5.37-15.16a26,26,0,0,1,5.09-11.48c-.68,1.46-1.08,16.09-1.08,16.09,4.1-.59,3.61-1.53,3.61-1.53-.65-8,1.53-18.24,1.53-18.24C275.46,206.18,272.54,206.73,272.54,206.73ZM144,243.25s-2.22,13.21-17.49,16.51-33.07,1.43-33.07,1.43-15.47-.74-20-6.18-5.78-7.11-8.94-20.7a26.79,26.79,0,0,1-.42-10.6c.06-.37.13-.72.21-1.07A20.25,20.25,0,0,1,69,213.13s9.64-6.78,36-7.37c22.8-.51,34.66,6.23,37.47,8.07.44.29.66.46.66.46,2.32,2.11,3.24,5.86,3.41,10C147,233,144,243.25,144,243.25Zm116.2-8.94c-3.16,13.59-4.4,15.27-8.94,20.7s-20,6.18-20,6.18-17.79,1.87-33.07-1.43-17.49-16.51-17.49-16.51-2.93-10.29-2.57-19c.17-4.13,1.08-7.89,3.41-10,0,0,.23-.18.71-.49,2.9-1.89,14.75-8.55,37.42-8,26.39.59,36,7.37,36,7.37a20.14,20.14,0,0,1,4.69,9.36c.1.4.18.8.25,1.22A26.79,26.79,0,0,1,260.23,234.31Z"/><path class="cls-2" d="M162.32,21s-2.87-6.53-14.93-10.19c0,0,7.22,3.07,9.59,9.3,0,0-14.93-9.79-28.57-8.31,0,0,6.72,1.88,7.22,3.36a62.14,62.14,0,0,0-12.86.75s11.08,1.13,13.25,3.31c0,0-8-1.19-11.47.29,0,0,7.32.4,11.08,3.46,0,0-12.76-.69-18.19,3.56,0,0,7.9-3.56,14.33-1.18,0,0-6.43.49-9.39,5.63,0,0,8.3-7.51,14.14-4.25a10.13,10.13,0,0,1,4.25,3.46s-5.64-2.47-8.41-.59c0,0,4.75.19,6.33,2.22,0,0-4.65.4-5.63,2.52,0,0,7.16-.79,7.9.35,0,0-3.9,1-4.25,4.3,0,0,5-2.44,7.63-1A188.7,188.7,0,0,1,155.8,61.64s-2.9.14-2.46,5.09c0,0,2.15,5-1.45,6.92,0,0-10.88-.45-17,3.45,0,0-35,11.28-43.59,20.62a60.79,60.79,0,0,1-6.13,5.73c-3.41,2.44-9.38,7.71-15.84,16-8.71,11.25-18.31,28.08-23.7,51.07,0,0-7.51,38.45-7,51.11v21.65l2-9.33.59,21.88,2.77-8.8,1.58,8.8,1.09-3L48,263.49s4.15-8.9,6-9.49-5.63,38.7,4,57.53c0,0,12.45,14.83,18.09,16.61,0,0-13.35-15-14.61-20.09,0,0-4.15-13.64-3.56-22.84,0,0,2.15,12.83,7.49,22.17l4.82,7.34-5.86-15.49-2.67-12.9s6.23,17.72,8.45,21.42S67,295,65.56,286l-2.74-38.63-.44-3s-5.19-18.78-8.31-20.41c0,0,2.37,15,1.19,16.21s-3.61-1.32-3.61-1.32-.2-14.79-1.53-18.45S50,207.15,51.3,206.65s14.93-3.85,14.93-3.85,2.27-16.61,4.15-21.46S73.45,174,73.45,174l-3.86,2.27s2.18-11.27,4.06-12.16l-3.27,1.09,4.35-17.4A111.57,111.57,0,0,1,80,136c1.63-3,6-9.24,8.5-11.17,9.16-7.13,11.47-7.31,14.44-6.42,0,0-5-3-10.29-1.68,0,0,10.78-3,16.81-.3l-5.34-5.64s9.29,2.67,11.67,4.85l-6.31-7.89s7.42,1.26,9.27,4.23L117,103.2l6.89,5.27.25-7.75,4.77,5.25-1.61-6.4,6.38,6.82-2.23-8.16,6.68,5.64-.26-8.32,6,10,.15-9.06s5.92,10.69,9.33,10.92l-3.92-9.52L157.3,108l-1.13-6.5,4.37,5.79,1.78-4.54V21Z"/><path class="cls-2" d="M161.44,21.19a.56.56,0,0,0,0,.12s0,0,0,0l-.06-.11-.13-.22c-.08-.15-.18-.3-.28-.45s-.41-.58-.64-.86A16.14,16.14,0,0,0,158.86,18a22.25,22.25,0,0,0-3.52-2.71,30,30,0,0,0-4-2.09,41.34,41.34,0,0,0-4.24-1.57l.6-1.64a22.37,22.37,0,0,1,3.12,1.74,24.54,24.54,0,0,1,2.8,2.19,15.91,15.91,0,0,1,4.14,5.86l1,2.46-2.25-1.43A63.79,63.79,0,0,0,143,14.56a35.82,35.82,0,0,0-14.54-1.9l.14-1.66c1.33.38,2.62.8,3.91,1.31a17.26,17.26,0,0,1,1.93.86,9.19,9.19,0,0,1,1,.58,2.62,2.62,0,0,1,1,1.16l.48,1.16L135.57,16a58.89,58.89,0,0,0-12.65.72l-.06-1.65c2.32.25,4.6.59,6.89,1,1.14.24,2.28.5,3.42.84a9,9,0,0,1,3.43,1.67l2,1.78L135.9,20a48.51,48.51,0,0,0-5.65-.44,26,26,0,0,0-2.8.11,9.3,9.3,0,0,0-2.57.57l-.28-1.57a31.46,31.46,0,0,1,6,1,15.7,15.7,0,0,1,5.58,2.64l1.94,1.53-2.5-.1a52.78,52.78,0,0,0-9.23.45,30.15,30.15,0,0,0-4.47,1,13,13,0,0,0-3.95,1.94l-.82-1.36a28,28,0,0,1,7.32-1.92,16.89,16.89,0,0,1,7.61.73l3.25,1.16-3.46.36a13.7,13.7,0,0,0-2.59.57,13.24,13.24,0,0,0-2.44,1.06,10.31,10.31,0,0,0-2.12,1.57,9.39,9.39,0,0,0-1.62,2l-1.2-1A28.52,28.52,0,0,1,125.09,28a21.81,21.81,0,0,1,3.59-1.87,12.59,12.59,0,0,1,4-1,7.63,7.63,0,0,1,4.19.9l-.1-.05a9.11,9.11,0,0,1,1.36.7,11.5,11.5,0,0,1,1.21.86,10.12,10.12,0,0,1,2,2.19l1.47,2.12-2.41-1a17.37,17.37,0,0,0-4-1.13,5.55,5.55,0,0,0-3.69.47l-.39-1.39a16.36,16.36,0,0,1,3.55.59,6.42,6.42,0,0,1,3.34,1.93l.9,1.06-1.44.15a13.25,13.25,0,0,0-2.92.64,3.63,3.63,0,0,0-2.09,1.45L133,33.6c1.37-.14,2.71-.23,4.08-.26.69,0,1.38,0,2.09,0a9,9,0,0,1,1.1.15,2.11,2.11,0,0,1,1.35.75l.68.8-1.11.33a7,7,0,0,0-1.31.55,6.08,6.08,0,0,0-1.17.81,3.67,3.67,0,0,0-1.23,2.3l-1.06-.75A16.81,16.81,0,0,1,140.32,37a6.7,6.7,0,0,1,4.36.33l.18.08.11.19c2.24,3.82,4.22,7.73,6.14,11.69s3.68,8,5.35,12l.36.88-1,.11a1.84,1.84,0,0,0-.91.48,2.53,2.53,0,0,0-.63,1,6.76,6.76,0,0,0-.23,2.79l-.06-.21a9.48,9.48,0,0,1,.57,2,8,8,0,0,1,.08,2.14,4.88,4.88,0,0,1-.73,2.13,4.38,4.38,0,0,1-1.71,1.52l-.16.09h-.19a46.56,46.56,0,0,0-8.58.61,22.25,22.25,0,0,0-8,2.73l-.08,0-.08,0c-8.26,2.73-16.45,5.77-24.43,9.25a120.32,120.32,0,0,0-11.65,5.8,44.47,44.47,0,0,0-5.34,3.59,21.64,21.64,0,0,0-2.31,2.19c-.77.81-1.55,1.58-2.35,2.34C75,111.45,64.33,125.58,56.7,141.21a139.27,139.27,0,0,0-9.13,24.39c-.55,2.1-1.14,4.2-1.54,6.32l-1.2,6.43q-1.17,6.43-2.23,12.89c-1.37,8.61-2.73,17.26-3.28,25.92-.19,8.65-.07,17.45-.12,26.17l-1.11-.12,2-9.33,1-4.54.12,4.64.58,21.88-1-.14,2.77-8.8.65-2.06.38,2.13,1.58,8.8-1-.09,1.09-3,.73-2,.28,2.12,1.38,10.57-1-.15a59.13,59.13,0,0,1,4.26-7.7,7.81,7.81,0,0,1,1.54-1.75l.29-.2.19-.08c.06,0,0,0,.15,0a.72.72,0,0,1,.36,0,.8.8,0,0,1,.42.55,1.72,1.72,0,0,1,.07.34,9.4,9.4,0,0,1,0,1.16c0,1.49-.14,2.93-.25,4.39-.45,5.79-.9,11.58-1,17.38a127,127,0,0,0,.56,17.34c.65,5.72,1.77,11.49,4.34,16.62l-.06-.09c2.66,3.12,5.43,6.17,8.34,9.07,1.45,1.44,2.94,2.85,4.51,4.17a18.58,18.58,0,0,0,5,3.24l-.47.73c-2.67-3-5.24-6.1-7.73-9.27-1.24-1.58-2.45-3.19-3.6-4.85A30.33,30.33,0,0,1,61.43,309a95.74,95.74,0,0,1-2.86-11.78,53.55,53.55,0,0,1-1-12.07l.18-3.58.66,3.53a86.14,86.14,0,0,0,4.33,15.44,45.73,45.73,0,0,0,3.48,7.18l4.42,6.74-.72.36-5.84-15.5,0,0v0L61.41,286.4l.73-.2q2,5.51,4,11a88.14,88.14,0,0,0,4.56,10.65c0,.07.21.2.05.12,0,0-.16,0-.22,0a.36.36,0,0,0-.14.13s0,.06,0,0V308a4.3,4.3,0,0,0-.1-.68c-.08-.46-.19-.94-.3-1.41l-.72-2.82-1.49-5.65c-1-3.77-1.94-7.56-2.56-11.43h0v0l-2.72-38.63v0l-.44-3v0c-1-3.55-2.1-7.09-3.33-10.58-.61-1.74-1.27-3.47-2-5.15-.37-.84-.77-1.67-1.21-2.47a5.84,5.84,0,0,0-1.6-2l.45-.33c.51,3.4,1,6.8,1.29,10.22a31,31,0,0,1,.16,5.2,3.18,3.18,0,0,1-.15.69,1,1,0,0,1-.24.39,1.3,1.3,0,0,1-.33.23,1.79,1.79,0,0,1-1.49,0A7,7,0,0,1,51.44,239l-.08-.08v-.12c-.07-4-.21-8-.53-12a36.68,36.68,0,0,0-.83-5.88,16.8,16.8,0,0,1-.73-6,31.32,31.32,0,0,1,.72-6,9.93,9.93,0,0,1,.45-1.47,2.73,2.73,0,0,1,.39-.73,1.13,1.13,0,0,1,.41-.32l.38-.12,2.91-.78,11.65-2.94-.2.22c.7-4.92,1.47-9.83,2.44-14.72a46.67,46.67,0,0,1,1.91-7.23c.92-2.32,1.85-4.62,2.91-6.89l.34.32-3.85,2.27-.47.28.1-.53c.43-2.13.91-4.24,1.49-6.33.29-1.05.6-2.09,1-3.11a15.33,15.33,0,0,1,.64-1.52,3.17,3.17,0,0,1,1.08-1.37l.18.44-3.26,1.08-.4.13.1-.4,4.36-17.4h0c1.29-3.4,2.69-6.75,4.29-10a52.79,52.79,0,0,1,5.9-9.16,24.76,24.76,0,0,1,3.72-4c1.44-1.11,2.89-2.2,4.38-3.24a29.58,29.58,0,0,1,4.72-2.76,8.4,8.4,0,0,1,2.67-.73,7.26,7.26,0,0,1,2.75.35l-.15.35a16.48,16.48,0,0,0-4.93-1.75,13.5,13.5,0,0,0-2.62-.22,11.9,11.9,0,0,0-2.59.3l-.09-.35a45.51,45.51,0,0,1,8.45-1.35,19.4,19.4,0,0,1,8.47,1.07l-.2.28L104,110.88l-.44-.46.61.18q3,.9,6,2c1,.38,2,.78,2.94,1.22a12.2,12.2,0,0,1,2.76,1.66l-.24.22-6.3-7.89-.27-.33.42.08a29.4,29.4,0,0,1,5,1.39,15.57,15.57,0,0,1,2.37,1.13,6,6,0,0,1,2,1.78l-.28.11-1.7-8.75-.08-.39.32.24,6.89,5.27-.23.11.25-7.75v-.34l.23.25,4.77,5.26-.23.12-1.61-6.4-.12-.5.35.38,6.37,6.82-.22.12-2.22-8.15-.1-.39.3.26,6.67,5.64-.19.09-.26-8.31v-.43l.22.36,6,10-.2,0,.16-9.07v-.36l.19.32a63,63,0,0,0,3.94,6.16,27.23,27.23,0,0,0,2.33,2.8,5.76,5.76,0,0,0,3,1.92l-.08.12-3.91-9.52-.22-.53.35.46,7.8,10.15-.12,0-1.12-6.5,0-.25.15.21,4.36,5.79h-.1l1.79-4.54v0L162.32,21Zm.87-1.88V21l.05,81.75h0l-1.77,4.54,0,.1-.06-.08-4.37-5.79.11,0,1.13,6.5,0,.27-.17-.22-7.81-10.14.13-.08,3.93,9.51.06.14-.15,0a5.85,5.85,0,0,1-3.09-2,27.44,27.44,0,0,1-2.35-2.82,63.6,63.6,0,0,1-4-6.18l.19,0-.15,9.07v.36l-.19-.31-6.05-10,.21-.06.26,8.32v.26l-.2-.17-6.68-5.63.2-.13,2.23,8.16.14.5-.36-.38-6.38-6.82.23-.12,1.61,6.4.13.52-.36-.4-4.78-5.25.24-.09-.23,7.75v.28l-.23-.17-6.89-5.26.23-.15,1.71,8.75.16.8-.44-.69a5.64,5.64,0,0,0-1.86-1.67,15.43,15.43,0,0,0-2.32-1.11,29.62,29.62,0,0,0-5-1.37l.15-.25,6.3,7.87-.24.23a11.5,11.5,0,0,0-2.67-1.59c-1-.44-1.93-.84-2.92-1.22-2-.73-4-1.4-6-2l.18-.28,5.34,5.63.56.59-.76-.31a19,19,0,0,0-8.31-1,45.59,45.59,0,0,0-8.38,1.34l-.09-.35a12.12,12.12,0,0,1,2.68-.32,14.12,14.12,0,0,1,2.68.22,16.88,16.88,0,0,1,5.06,1.79l1.57.87-1.72-.52a6.86,6.86,0,0,0-2.61-.34,7.9,7.9,0,0,0-2.54.71,28.3,28.3,0,0,0-4.65,2.73c-1.48,1-2.93,2.12-4.36,3.23A24.87,24.87,0,0,0,85,128.83a53.13,53.13,0,0,0-5.84,9.1c-1.59,3.25-3,6.6-4.26,10v0l-4.34,17.4-.3-.28,3.26-1.09,1.45-.48-1.28.92A6.07,6.07,0,0,0,72.26,167c-.37,1-.68,2-1,3.08-.57,2.07-1,4.18-1.47,6.29l-.36-.26,3.85-2.27.68-.4-.33.72c-1,2.24-2,4.54-2.88,6.85a45.27,45.27,0,0,0-1.88,7.15c-1,4.87-1.72,9.78-2.42,14.69l0,.18-.18,0L54.65,206l-2.88.79-.35.11a.5.5,0,0,0-.17.14,3,3,0,0,0-.31.59,9.43,9.43,0,0,0-.42,1.4,30.68,30.68,0,0,0-.7,5.9,16.18,16.18,0,0,0,.72,5.84,37.27,37.27,0,0,1,.86,6c.32,4,.47,8,.55,12l-.09-.2a6.42,6.42,0,0,0,2,1.41,1.22,1.22,0,0,0,1,.06.62.62,0,0,0,.19-.14.34.34,0,0,0,.09-.16,2.22,2.22,0,0,0,.11-.56,29.69,29.69,0,0,0-.16-5.06c-.32-3.4-.79-6.8-1.3-10.18l-.11-.68.56.36a6.09,6.09,0,0,1,1.85,2.26c.46.82.86,1.66,1.24,2.52.75,1.7,1.41,3.44,2,5.19,1.24,3.51,2.34,7.05,3.36,10.62v0l.44,3h0v0l2.77,38.62v0c.62,3.82,1.59,7.59,2.57,11.36L70,302.91l.73,2.83c.11.48.22,1,.32,1.45,0,.25.08.49.1.77a1,1,0,0,1,0,.25.62.62,0,0,1-.06.21.49.49,0,0,1-.19.19.43.43,0,0,1-.31,0c-.38-.19-.33-.28-.45-.4a39.88,39.88,0,0,1-2.52-5.35q-1.11-2.72-2.14-5.45-2.09-5.46-4-11l.74-.2,2.68,12.9,0-.06,5.87,15.49L72,318l-2-3.06-4.44-6.75A45.65,45.65,0,0,1,62,300.88a86.93,86.93,0,0,1-4.4-15.6l.84,0a53.4,53.4,0,0,0,1,11.87,95.28,95.28,0,0,0,2.83,11.6c1.59,3.55,4.15,6.75,6.56,9.91s5,6.22,7.7,9.22l1.18,1.34L76,328.57a19,19,0,0,1-5.33-3.4c-1.6-1.34-3.11-2.76-4.58-4.21-2.93-2.93-5.72-6-8.41-9.12l0,0,0-.05c-2.67-5.3-3.8-11.16-4.46-16.94a129.24,129.24,0,0,1-.59-17.48c.15-5.83.59-11.64,1-17.43.1-1.44.22-2.9.24-4.32a8.12,8.12,0,0,0,0-1,.69.69,0,0,0,0-.19c0-.06-.09,0,.16.09.44.06.16,0,.18.06l-.16.1a7.4,7.4,0,0,0-1.31,1.53,58.72,58.72,0,0,0-4.16,7.55l-.75,1.57-.23-1.72L46.14,253l1,.11-1.08,3-.67,1.83L45.05,256l-1.59-8.79,1,.06L41.74,256l-1,3.07-.09-3.22L40.07,234l1.1.1-2,9.33-1.14,5.33,0-5.45c0-8.74-.09-17.41.09-26.22.55-8.77,1.9-17.41,3.26-26q1.05-6.47,2.21-12.92l1.2-6.44c.41-2.17,1-4.29,1.55-6.41a140.46,140.46,0,0,1,9.18-24.62,123.61,123.61,0,0,1,13.89-22.31,98.45,98.45,0,0,1,8.79-9.82,64.52,64.52,0,0,1,5-4.38c.86-.71,1.79-1.31,2.57-2s1.6-1.44,2.39-2.18,1.55-1.51,2.29-2.29a23.31,23.31,0,0,1,2.44-2.31,44.72,44.72,0,0,1,5.51-3.72,119.72,119.72,0,0,1,11.78-5.88c8-3.52,16.22-6.58,24.54-9.34l-.16.08a23.64,23.64,0,0,1,8.48-3,47.89,47.89,0,0,1,8.88-.63l-.36.08a3.11,3.11,0,0,0,1.68-2.56,7.76,7.76,0,0,0-.55-3.45l-.05-.13v-.09a8.26,8.26,0,0,1,.31-3.39,3.84,3.84,0,0,1,1-1.6,3.08,3.08,0,0,1,1.84-.88l-.63,1q-2.49-6.06-5.33-12c-1.9-3.92-3.9-7.83-6.09-11.56l.28.27a5.42,5.42,0,0,0-3.39-.18A16.56,16.56,0,0,0,137,39.66l-1.2.56.13-1.3a5.21,5.21,0,0,1,1.71-3.24,7.92,7.92,0,0,1,1.45-1,8.56,8.56,0,0,1,1.64-.68l-.43,1.13c.13.12-.17-.09-.42-.11a6.31,6.31,0,0,0-.9-.12c-.63-.05-1.28-.05-1.94,0-1.3,0-2.64.12-3.94.26l-1.34.14.57-1.21a3.76,3.76,0,0,1,1.35-1.46,7.33,7.33,0,0,1,1.6-.77,14.39,14.39,0,0,1,3.31-.72l-.54,1.22a5.18,5.18,0,0,0-2.55-1.41,15.25,15.25,0,0,0-3.21-.52L130,30.22l2-1.24a6.91,6.91,0,0,1,4.75-.72,18.09,18.09,0,0,1,4.38,1.24l-.94,1.13a9,9,0,0,0-1.73-1.86,12.45,12.45,0,0,0-1.05-.74,8.37,8.37,0,0,0-1.11-.57l-.06,0,0,0a6.08,6.08,0,0,0-3.35-.7,11.13,11.13,0,0,0-3.53.86,23.85,23.85,0,0,0-6.36,4L119,35l2.75-4.36a11.58,11.58,0,0,1,1.89-2.39,11.77,11.77,0,0,1,2.43-1.8,15.82,15.82,0,0,1,2.74-1.2,14.72,14.72,0,0,1,3-.64l-.21,1.52a15.5,15.5,0,0,0-6.89-.62,26,26,0,0,0-6.85,1.8l-5.7,2.39L117,25.91a14.34,14.34,0,0,1,4.45-2.2,29.9,29.9,0,0,1,4.71-1.06,53.61,53.61,0,0,1,9.56-.48l-.56,1.44a14.22,14.22,0,0,0-5-2.32,30.6,30.6,0,0,0-5.61-.95l-3.44-.25,3.16-1.32a10.8,10.8,0,0,1,3-.69,27.38,27.38,0,0,1,3-.12,50.25,50.25,0,0,1,5.87.45l-.7,1.4a8.08,8.08,0,0,0-2.75-1.26c-1.06-.31-2.16-.57-3.27-.79-2.21-.44-4.48-.77-6.73-1l-5.83-.65,5.77-1a53,53,0,0,1,6.5-.72,65,65,0,0,1,6.55,0l-.85,1.11a3.18,3.18,0,0,0-.37-.32,6.1,6.1,0,0,0-.76-.45,19,19,0,0,0-1.77-.79c-1.21-.47-2.49-.89-3.75-1.25L124,11.43l4.33-.46a37.41,37.41,0,0,1,15.24,2,60,60,0,0,1,7.13,2.81,61.35,61.35,0,0,1,6.76,3.65l-1.28,1a14.23,14.23,0,0,0-3.7-5.2,22.11,22.11,0,0,0-2.59-2,21,21,0,0,0-2.83-1.59l.59-1.65a47.21,47.21,0,0,1,4.44,1.63,32.53,32.53,0,0,1,4.21,2.22,24.71,24.71,0,0,1,3.8,2.91,19.88,19.88,0,0,1,1.64,1.79A7.51,7.51,0,0,1,162.31,19.31Z"/><path class="cls-5" d="M162.32,410.58a135.08,135.08,0,0,1-15.55-3.39,34.4,34.4,0,0,1-9.79-4.55c-8.46-5.71-20.54-14.79-29.84-22.51A79.7,79.7,0,0,1,83.5,347.2c-6.77-17.79-12.77-38.95-12.77-38.95"/><path class="cls-1" d="M148.08,71.62c-2-2.19-3.94-4.38-6-6.51s-4-4.31-6.05-6.41c-4.09-4.21-8.23-8.36-12.56-12.31A145.69,145.69,0,0,0,110,35.15a42,42,0,0,0-3.59-2.51c-1.24-.76-2.42-1.65-3.72-2.31s-2.55-1.44-3.87-2.09-2.7-1.11-4.06-1.7c5.79,1.3,11.08,4.26,16,7.49,2.53,1.56,4.82,3.45,7.19,5.23s4.54,3.79,6.7,5.82a166.46,166.46,0,0,1,12.36,12.7A162.94,162.94,0,0,1,148.08,71.62Z"/><path class="cls-1" d="M144.45,73.25c-1.26-1.54-2.5-3.08-3.82-4.57s-2.56-3-3.9-4.45c-2.67-2.9-5.38-5.75-8.3-8.36a65.25,65.25,0,0,0-9.24-7.19,22.81,22.81,0,0,0-2.53-1.47A17.26,17.26,0,0,0,114,46a25.93,25.93,0,0,0-2.74-1.07c-1-.23-1.9-.49-2.86-.77,1,.09,2,.19,3,.31a27,27,0,0,1,2.92.71,17.89,17.89,0,0,1,2.83,1.07,21.19,21.19,0,0,1,2.72,1.3,47.19,47.19,0,0,1,9.75,7.06,69.82,69.82,0,0,1,8.15,8.79A71.56,71.56,0,0,1,144.45,73.25Z"/><path class="cls-1" d="M125.84,79.77c-.55-2.71-1.19-5.4-2-8a81.33,81.33,0,0,0-2.62-7.81,71.6,71.6,0,0,0-7.54-14.51A43.87,43.87,0,0,0,102.3,37.9a39.42,39.42,0,0,0-15.16-6,35.58,35.58,0,0,1,8.22,1.42A34.78,34.78,0,0,1,103,36.74a40.26,40.26,0,0,1,12.1,11.65,60.35,60.35,0,0,1,7.36,15.07A66.71,66.71,0,0,1,125.84,79.77Z"/><path class="cls-1" d="M121.44,81.11c-3.39,0-6.77-.06-10.12.22a41.21,41.21,0,0,0-9.81,1.77,16.39,16.39,0,0,0-8,5.11,10.88,10.88,0,0,0-2,8.83l.54,2.52-1.94-1.63c-2.45-2.07-5-4.07-7.65-5.94a74.68,74.68,0,0,0-8.18-5.13c-2.83-1.42-5.91-2.79-9-2.54a4.46,4.46,0,0,0-3.62,2.49,11.57,11.57,0,0,0-1.06,4.68,11.09,11.09,0,0,1,.68-4.86,5.31,5.31,0,0,1,1.52-2,5.49,5.49,0,0,1,2.37-1,11.47,11.47,0,0,1,5,.43,30.3,30.3,0,0,1,4.65,1.77,62.3,62.3,0,0,1,8.54,4.93,96.43,96.43,0,0,1,7.88,5.92l-1.4.89a12.13,12.13,0,0,1,2.27-10.35c2.27-2.91,5.64-4.49,8.94-5.48a42.2,42.2,0,0,1,10.21-1.29A70.34,70.34,0,0,1,121.44,81.11Z"/><path class="cls-1" d="M89.86,98.31a47.64,47.64,0,0,0-9.33-1.23,46.12,46.12,0,0,0-9.33.42A40.12,40.12,0,0,0,54,104a44.34,44.34,0,0,0-12.59,13.45,78.42,78.42,0,0,0-7.74,17.11c.36-1.54.73-3.08,1.13-4.61s.93-3,1.44-4.53a62.28,62.28,0,0,1,4-8.67A41.74,41.74,0,0,1,53,102.56a38.35,38.35,0,0,1,18-6.42A44.52,44.52,0,0,1,89.86,98.31Z"/><path class="cls-1" d="M98.75,92.22A149.06,149.06,0,0,0,85.58,75.53,129.79,129.79,0,0,0,70.08,61a105,105,0,0,0-8.63-6.18,89.53,89.53,0,0,0-9.32-5.1,73.28,73.28,0,0,0-10-3.68,62.85,62.85,0,0,0-10.45-1.94,62.17,62.17,0,0,1,10.5,1.73,72.71,72.71,0,0,1,10,3.62,87.29,87.29,0,0,1,9.38,5.06,106,106,0,0,1,8.72,6.14A129.88,129.88,0,0,1,85.8,75.34,129.17,129.17,0,0,1,98.75,92.22Z"/><path class="cls-1" d="M95.66,94.16a61,61,0,0,0-8.67-7,54.18,54.18,0,0,0-9.77-5.35c-6.81-2.87-14.61-3.94-21.71-1.66a31.28,31.28,0,0,0-9.78,5.13,47.91,47.91,0,0,0-7.77,8c-1.14,1.47-2.16,3-3.21,4.56s-1.94,3.18-2.83,4.82-1.74,3.29-2.55,5l-2.28,5.1A81.66,81.66,0,0,1,37.73,93,47.81,47.81,0,0,1,45.5,85a31.61,31.61,0,0,1,9.88-5.27c7.24-2.27,15.13-1.11,22,1.82A58.06,58.06,0,0,1,95.66,94.16Z"/><path class="cls-1" d="M153.13,72.61c-1.9-3.25-3.9-6.44-5.95-9.6s-4.24-6.23-6.55-9.2a76.81,76.81,0,0,0-7.38-8.52,36.37,36.37,0,0,0-4.3-3.63,16.4,16.4,0,0,0-5-2.56c3.69.95,6.77,3.41,9.49,6A75.49,75.49,0,0,1,141,53.54c2.28,3,4.41,6.13,6.45,9.31S151.38,69.27,153.13,72.61Z"/><path class="cls-1" d="M81.92,106.05A74.82,74.82,0,0,1,88.77,91.2a88.76,88.76,0,0,1,9.54-13.32l1.34-1.56,1.42-1.47c1-1,1.89-2,2.89-2.91,2-1.82,4-3.72,6.22-5.34,1.09-.82,2.12-1.74,3.26-2.48l3.41-2.28a36.69,36.69,0,0,1,3.53-2.08l3.58-2a96.2,96.2,0,0,0-13.6,9c-2.18,1.63-4.13,3.54-6.14,5.37-1,.94-1.9,2-2.85,2.93L100,76.61l-1.32,1.56A88,88,0,0,0,89,91.35,85.48,85.48,0,0,0,81.92,106.05Z"/><path class="cls-1" d="M88.28,100.78A47.32,47.32,0,0,0,76.46,89.11a61.4,61.4,0,0,0-14.8-7.57,72.36,72.36,0,0,0-8-2.26,69.25,69.25,0,0,0-8.23-1.37,36.24,36.24,0,0,0-4.16-.33l-4.17-.2c-2.79,0-5.57.12-8.36.17,2.78-.13,5.57-.32,8.36-.39l4.18.16a34.27,34.27,0,0,1,4.18.3,67.74,67.74,0,0,1,8.27,1.3,70.71,70.71,0,0,1,8.1,2.2,62.31,62.31,0,0,1,14.82,7.75A44,44,0,0,1,88.28,100.78Z"/><path class="cls-1" d="M128.8,79.77a154.11,154.11,0,0,1-11.08-18.26,143.75,143.75,0,0,1-8.53-19.6A86.31,86.31,0,0,1,104.68,21a46.17,46.17,0,0,1,2.77-21A48.22,48.22,0,0,0,105,21a86.65,86.65,0,0,0,4.64,20.76A144.63,144.63,0,0,0,118,61.38,183.33,183.33,0,0,0,128.8,79.77Z"/><path class="cls-2" d="M139.8,267.05S123.24,293,135.7,300a19.19,19.19,0,0,1-3.31-12.75C132.86,280.75,137.53,271.55,139.8,267.05Z"/><path class="cls-4" d="M197.64,342.45a.82.82,0,0,0,.05-.82A1.48,1.48,0,0,1,197.64,342.45Z"/><path class="cls-4" d="M191.2,341.63s-7,.08-9.46,0a21.5,21.5,0,0,0-6.23,1.34s-6.52.15-8.52.81a13.9,13.9,0,0,1-4.67.45c1.63.67,5-.19,5-.19l8.52-.81c4.82-1.56,5-.6,6.6-.52s8.71-.52,8.94-.85,5.15-1,5.15-1a1.19,1.19,0,0,1,1,.51,2.87,2.87,0,0,0-.32-.51C196.47,338.82,191.2,341.63,191.2,341.63Z"/><path class="cls-4" d="M197.69,341.63a1.2,1.2,0,0,0-.11-.23A1.63,1.63,0,0,1,197.69,341.63Z"/><path class="cls-4" d="M127,342.45a1.59,1.59,0,0,1,0-.82A.82.82,0,0,0,127,342.45Z"/><path class="cls-4" d="M127.05,341.4a1.2,1.2,0,0,0-.11.23A1.63,1.63,0,0,1,127.05,341.4Z"/><path class="cls-4" d="M157.64,343.78c-2-.66-8.52-.81-8.52-.81a21.5,21.5,0,0,0-6.23-1.34c-2.45.08-9.46,0-9.46,0s-5.27-2.81-6.06-.74a2.87,2.87,0,0,0-.32.51,1.19,1.19,0,0,1,1-.51s4.93.63,5.16,1,7.37.92,8.93.85,1.78-1,6.6.52l8.52.81s3.41.86,5,.19A14,14,0,0,1,157.64,343.78Z"/><path class="cls-1" d="M147.88,208.36s-5.68-11-15.57-13.12l4.83,3.56s-6.9-7.36-20.46-7.56h-.16s-3-.45-8.38,1.08l4.33-1.81-13.72.05s-18.19,4.19-17,5c0,0-7.18,4.61-7.37,5.8,0,0,11.64-5.35,14-4.56,0,0-2.17,1.36-3.31,2.1L95.33,197l6.27.52-4.77,1.09,12.45-.06-2.8.77s6,.37,6.26.37,12.2-2.34,31,7.51C145.52,208.16,145.89,207.11,147.88,208.36Z"/><path class="cls-1" d="M174.77,208.36s5.69-11,15.57-13.12l-4.83,3.56s6.9-7.36,20.46-7.56h.16s3-.45,8.38,1.08l-4.33-1.81,13.72.05s18.19,4.19,17.06,5c0,0,7.17,4.61,7.37,5.8,0,0-11.64-5.35-14.05-4.56,0,0,2.18,1.36,3.31,2.1L227.33,197l-6.28.52,4.78,1.09-12.45-.06,2.8.77s-6,.37-6.26.37-12.2-2.34-30.95,7.51C177.14,208.16,176.77,207.11,174.77,208.36Z"/><path class="cls-2" d="M54.07,254s-7.71,4.75-3.26,22.54c0,0-1.28,31,24.56,49C75.37,325.58,56,259.34,54.07,254Z"/><path class="cls-1" d="M53.13,258.1s-2.32,3-2.67,5.44C50.46,263.54,52.84,259,53.13,258.1Z"/><path class="cls-1" d="M53.13,260.57s-.49,3.61-1.88,4.21c0,0,1,1.13.55,2.07,0,0,.34-1.09.84-.89l.49-1.09S53.73,260.62,53.13,260.57Z"/><path class="cls-1" d="M47,259.44c-.64.15-1.25.47-1.9.66a14.86,14.86,0,0,1-2,.43,17.32,17.32,0,0,1-4.07.06,21.59,21.59,0,0,1-4-.89c-.64-.2-1.26-.47-1.89-.71l-1.81-.89a30.74,30.74,0,0,0,7.71,2,18.17,18.17,0,0,0,4,0A29.59,29.59,0,0,0,47,259.44Z"/><path class="cls-1" d="M47.35,262.8c-1.12,1.13-2.35,2.13-3.57,3.14a45.84,45.84,0,0,1-3.84,2.79c1.12-1.13,2.34-2.13,3.56-3.14S46,263.64,47.35,262.8Z"/><path class="cls-2" d="M48.93,266.85c-.82,1-1.62,2.09-2.42,3.15s-1.57,2.11-2.3,3.21a35.2,35.2,0,0,0-2.08,3.35,14.86,14.86,0,0,0-1.5,3.64,11.5,11.5,0,0,1,1.2-3.79,29.57,29.57,0,0,1,2-3.45A42.53,42.53,0,0,1,48.93,266.85Z"/><path class="cls-2" d="M49.43,269.22a24.24,24.24,0,0,0-1.28,6.22,28.61,28.61,0,0,0,.16,6.34,30.5,30.5,0,0,0,1.46,6.16,39.67,39.67,0,0,0,2.56,5.83c-.53-.92-1.11-1.82-1.6-2.77a31.86,31.86,0,0,1-1.28-2.94,28.36,28.36,0,0,1-1.59-6.23,27,27,0,0,1,0-6.42A20.65,20.65,0,0,1,49.43,269.22Z"/><path class="cls-4" d="M50,275.5a49.1,49.1,0,0,1-1,8.37,21.42,21.42,0,0,1-2.93,7.87,18.8,18.8,0,0,0,1.52-3.89c.39-1.34.72-2.7,1-4.07s.52-2.74.75-4.12S49.76,276.89,50,275.5Z"/><path class="cls-4" d="M49.43,272.31a22.69,22.69,0,0,1-4.35,4.35,10.36,10.36,0,0,1-5.61,2.4A9.64,9.64,0,0,0,42.29,278a19,19,0,0,0,2.52-1.68c.82-.59,1.59-1.25,2.36-1.92S48.69,273,49.43,272.31Z"/><path class="cls-2" d="M48.93,270.24a43.58,43.58,0,0,1-4.75,4c-.85.6-1.7,1.19-2.61,1.71a5,5,0,0,1-2.94.93,2.43,2.43,0,0,0,1.44-.43,15,15,0,0,0,1.32-.8c.86-.56,1.71-1.15,2.53-1.77C45.6,272.71,47.23,271.43,48.93,270.24Z"/><path class="cls-4" d="M47.84,274.69a38.92,38.92,0,0,1-1.73,7.2c-.42,1.16-.87,2.32-1.4,3.44a24.94,24.94,0,0,1-1.83,3.22A76.28,76.28,0,0,0,47.84,274.69Z"/><path class="cls-2" d="M44.78,258.1a62,62,0,0,1-7.44,8.74,36.1,36.1,0,0,1-4.43,3.67,12.46,12.46,0,0,1-5.23,2.32,13.86,13.86,0,0,0,5-2.59A41.32,41.32,0,0,0,37,266.52c1.38-1.31,2.69-2.7,4-4.1S43.56,259.57,44.78,258.1Z"/><path class="cls-1" d="M45.36,258.45c-2.41,1.22-4.88,2.28-7.35,3.36s-5,2.06-7.51,2.94c2.4-1.22,4.87-2.28,7.34-3.35S42.81,259.33,45.36,258.45Z"/><path class="cls-4" d="M62.4,318.08a13.18,13.18,0,0,0,1.88,3.63,17.78,17.78,0,0,0,2.75,3,22.21,22.21,0,0,0,3.31,2.38A37.21,37.21,0,0,0,74,328.94l-2-.67c-.63-.3-1.28-.55-1.88-.88a20.14,20.14,0,0,1-3.45-2.34A13.17,13.17,0,0,1,62.4,318.08Z"/><path class="cls-4" d="M59.93,318.36a19.12,19.12,0,0,0,1.67,6.13,15.14,15.14,0,0,0,9.2,8.13,21.37,21.37,0,0,0,3.08.78c1.05.17,2.11.25,3.18.38-1.07-.06-2.14-.06-3.21-.16a22.35,22.35,0,0,1-3.15-.68,14.8,14.8,0,0,1-5.65-3.08A15.81,15.81,0,0,1,59.93,318.36Z"/><path class="cls-4" d="M73.13,328.14a37,37,0,0,1-.15,6.49,21.89,21.89,0,0,1-.61,3.21,4.61,4.61,0,0,1-1.64,2.76A5.15,5.15,0,0,0,72,337.75a30.31,30.31,0,0,0,.5-3.17C72.81,332.45,72.93,330.3,73.13,328.14Z"/><path class="cls-4" d="M75.72,329.46c0,3.15-.08,6.29-.13,9.44l-.09,4.71c0,.79,0,1.57,0,2.36a9.19,9.19,0,0,0,.21,2.34,18.08,18.08,0,0,1-.56-4.69c0-1.58,0-3.16,0-4.73C75.24,335.74,75.38,332.59,75.72,329.46Z"/><path class="cls-4" d="M80,340.13c-.09,2.33-.26,4.64-.31,7-.06,1.16,0,2.32,0,3.47A18.28,18.28,0,0,0,80,354a19.84,19.84,0,0,1-.75-6.94A46.3,46.3,0,0,1,80,340.13Z"/><path class="cls-4" d="M64.08,305.75a6.37,6.37,0,0,0,.27,4.65,8.05,8.05,0,0,0,1.31,2,17.57,17.57,0,0,0,1.76,1.68l-1.06-.64c-.31-.27-.65-.51-1-.8a7.76,7.76,0,0,1-1.47-2,6,6,0,0,1-.5-2.46A4.9,4.9,0,0,1,64.08,305.75Z"/><path class="cls-4" d="M65.51,308.86a22.61,22.61,0,0,0,.41,2.35,15.65,15.65,0,0,0,.68,2.24,10.72,10.72,0,0,0,1.06,2.08,9.66,9.66,0,0,0,1.54,1.79,6.58,6.58,0,0,1-1.82-1.59,9.39,9.39,0,0,1-1.19-2.12A10.88,10.88,0,0,1,65.51,308.86Z"/><path class="cls-4" d="M60.25,295.87a11.69,11.69,0,0,1,.22,2.35,11.09,11.09,0,0,1-.22,2.36,12.71,12.71,0,0,1,0-4.71Z"/><path class="cls-1" d="M128.77,226.63c-1,.84-2.12,1.42-2.67,2.62a1.71,1.71,0,0,1,.21-1,3.6,3.6,0,0,1,.66-.79A3.74,3.74,0,0,1,128.77,226.63Z"/><path class="cls-2" d="M156.62,297.49a6.36,6.36,0,0,0-1.48-1.62,6,6,0,0,0-1.59-.91c-1.83-1.78-6.62-5.62-10.78-2.11,0,0-1.88,1.09-1.54,2.92s6.83-4.11,13,0A26.15,26.15,0,0,0,156.62,297.49Z"/><path class="cls-1" d="M211.52,220.9s-4,5.24,1.48,7C213,227.94,209,226.39,211.52,220.9Z"/><path class="cls-1" d="M102.3,220.66s-3.83,2.67-1.53,6.8C100.77,227.46,99.16,223,102.3,220.66Z"/><line class="cls-1" x1="139.94" y1="266.74" x2="146.76" y2="251.21"/><line class="cls-1" x1="184.91" y1="267.17" x2="178.33" y2="252.08"/></g></g></svg>